<svg xmlns="http://www.w3.org/2000/svg" version="1.1" xmlns:xlink="http://www.w3.org/1999/xlink" xmlns:svgjs="http://svgjs.dev/svgjs" width="1440" height="560" preserveAspectRatio="none" viewBox="0 0 1440 560"><g mask="url(&quot;#SvgjsMask1006&quot;)" fill="none"><rect width="1440" height="560" x="0" y="0" fill="rgba(245, 245, 245, 1)"></rect><path d="M-104.96 365.4L-104.96 365.4" stroke="rgba(139, 142, 149, 1)" stroke-width="1.5"></path><path d="M-104.96 365.4L39.22 366.57" stroke="rgba(139, 142, 149, 1)" stroke-width="1.5"></path><path d="M-104.96 365.4L-51.87 554.78" stroke="rgba(139, 142, 149, 1)" stroke-width="1.5"></path><path d="M-104.96 365.4L109.55 503.96" stroke="rgba(139, 142, 149, 1)" stroke-width="1.5"></path><path d="M-51.87 554.78L-51.87 554.78" stroke="rgba(139, 142, 149, 1)" stroke-width="1.5"></path><path d="M-51.87 554.78L-88.51 704.75" stroke="rgba(139, 142, 149, 1)" stroke-width="1.5"></path><path d="M-51.87 554.78L109.55 503.96" stroke="rgba(139, 142, 149, 1)" stroke-width="1.5"></path><path d="M-88.51 704.75L-88.51 704.75" stroke="rgba(139, 142, 149, 1)" stroke-width="1.5"></path><path d="M-88.51 704.75L109.55 503.96" stroke="rgba(139, 142, 149, 1)" stroke-width="1.5"></path><path d="M-88.51 704.75L224.54 680.73" stroke="rgba(139, 142, 149, 1)" stroke-width="1.5"></path><path d="M-88.51 704.75L-104.96 365.4" stroke="rgba(139, 142, 149, 1)" stroke-width="1.5"></path><path d="M-88.51 704.75L39.22 366.57" stroke="rgba(139, 142, 149, 1)" stroke-width="1.5"></path><path d="M39.22 366.57L39.22 366.57" stroke="rgba(139, 142, 149, 1)" stroke-width="1.5"></path><path d="M39.22 366.57L109.55 503.96" stroke="rgba(139, 142, 149, 1)" stroke-width="1.5"></path><path d="M39.22 366.57L198.34 412.37" stroke="rgba(139, 142, 149, 1)" stroke-width="1.5"></path><path d="M39.22 366.57L-51.87 554.78" stroke="rgba(139, 142, 149, 1)" stroke-width="1.5"></path><path d="M109.55 503.96L109.55 503.96" stroke="rgba(139, 142, 149, 1)" stroke-width="1.5"></path><path d="M109.55 503.96L212.11 498.74" stroke="rgba(139, 142, 149, 1)" stroke-width="1.5"></path><path d="M109.55 503.96L198.34 412.37" stroke="rgba(139, 142, 149, 1)" stroke-width="1.5"></path><path d="M198.34 412.37L198.34 412.37" stroke="rgba(139, 142, 149, 1)" stroke-width="1.5"></path><path d="M198.34 412.37L212.11 498.74" stroke="rgba(139, 142, 149, 1)" stroke-width="1.5"></path><path d="M198.34 412.37L372.77 401.82" stroke="rgba(139, 142, 149, 1)" stroke-width="1.5"></path><path d="M198.34 412.37L371.99 517.07" stroke="rgba(139, 142, 149, 1)" stroke-width="1.5"></path><path d="M212.11 498.74L212.11 498.74" stroke="rgba(139, 142, 149, 1)" stroke-width="1.5"></path><path d="M212.11 498.74L371.99 517.07" stroke="rgba(139, 142, 149, 1)" stroke-width="1.5"></path><path d="M212.11 498.74L224.54 680.73" stroke="rgba(139, 142, 149, 1)" stroke-width="1.5"></path><path d="M212.11 498.74L372.77 401.82" stroke="rgba(139, 142, 149, 1)" stroke-width="1.5"></path><path d="M212.11 498.74L344.08 670.59" stroke="rgba(139, 142, 149, 1)" stroke-width="1.5"></path><path d="M224.54 680.73L224.54 680.73" stroke="rgba(139, 142, 149, 1)" stroke-width="1.5"></path><path d="M224.54 680.73L344.08 670.59" stroke="rgba(139, 142, 149, 1)" stroke-width="1.5"></path><path d="M224.54 680.73L109.55 503.96" stroke="rgba(139, 142, 149, 1)" stroke-width="1.5"></path><path d="M224.54 680.73L371.99 517.07" stroke="rgba(139, 142, 149, 1)" stroke-width="1.5"></path><path d="M224.54 680.73L198.34 412.37" stroke="rgba(139, 142, 149, 1)" stroke-width="1.5"></path><path d="M224.54 680.73L500.45 667.43" stroke="rgba(139, 142, 149, 1)" stroke-width="1.5"></path><path d="M372.77 401.82L372.77 401.82" stroke="rgba(139, 142, 149, 1)" stroke-width="1.5"></path><path d="M372.77 401.82L371.99 517.07" stroke="rgba(139, 142, 149, 1)" stroke-width="1.5"></path><path d="M372.77 401.82L518.75 360.81" stroke="rgba(139, 142, 149, 1)" stroke-width="1.5"></path><path d="M372.77 401.82L524.5 542.72" stroke="rgba(139, 142, 149, 1)" stroke-width="1.5"></path><path d="M372.77 401.82L344.08 670.59" stroke="rgba(139, 142, 149, 1)" stroke-width="1.5"></path><path d="M371.99 517.07L371.99 517.07" stroke="rgba(139, 142, 149, 1)" stroke-width="1.5"></path><path d="M371.99 517.07L524.5 542.72" stroke="rgba(139, 142, 149, 1)" stroke-width="1.5"></path><path d="M371.99 517.07L344.08 670.59" stroke="rgba(139, 142, 149, 1)" stroke-width="1.5"></path><path d="M371.99 517.07L500.45 667.43" stroke="rgba(139, 142, 149, 1)" stroke-width="1.5"></path><path d="M344.08 670.59L344.08 670.59" stroke="rgba(139, 142, 149, 1)" stroke-width="1.5"></path><path d="M344.08 670.59L500.45 667.43" stroke="rgba(139, 142, 149, 1)" stroke-width="1.5"></path><path d="M344.08 670.59L524.5 542.72" stroke="rgba(139, 142, 149, 1)" stroke-width="1.5"></path><path d="M518.75 360.81L518.75 360.81" stroke="rgba(139, 142, 149, 1)" stroke-width="1.5"></path><path d="M518.75 360.81L524.5 542.72" stroke="rgba(139, 142, 149, 1)" stroke-width="1.5"></path><path d="M518.75 360.81L704.59 390.65" stroke="rgba(139, 142, 149, 1)" stroke-width="1.5"></path><path d="M524.5 542.72L524.5 542.72" stroke="rgba(139, 142, 149, 1)" stroke-width="1.5"></path><path d="M524.5 542.72L500.45 667.43" stroke="rgba(139, 142, 149, 1)" stroke-width="1.5"></path><path d="M524.5 542.72L689.15 495.02" stroke="rgba(139, 142, 149, 1)" stroke-width="1.5"></path><path d="M500.45 667.43L500.45 667.43" stroke="rgba(139, 142, 149, 1)" stroke-width="1.5"></path><path d="M704.59 390.65L704.59 390.65" stroke="rgba(139, 142, 149, 1)" stroke-width="1.5"></path><path d="M704.59 390.65L689.15 495.02" stroke="rgba(139, 142, 149, 1)" stroke-width="1.5"></path><path d="M704.59 390.65L843.34 339.95" stroke="rgba(139, 142, 149, 1)" stroke-width="1.5"></path><path d="M704.59 390.65L847.94 538.75" stroke="rgba(139, 142, 149, 1)" stroke-width="1.5"></path><path d="M689.15 495.02L689.15 495.02" stroke="rgba(139, 142, 149, 1)" stroke-width="1.5"></path><path d="M689.15 495.02L847.94 538.75" stroke="rgba(139, 142, 149, 1)" stroke-width="1.5"></path><path d="M709.6 665.79L709.6 665.79" stroke="rgba(139, 142, 149, 1)" stroke-width="1.5"></path><path d="M709.6 665.79L849.41 655.56" stroke="rgba(139, 142, 149, 1)" stroke-width="1.5"></path><path d="M709.6 665.79L689.15 495.02" stroke="rgba(139, 142, 149, 1)" stroke-width="1.5"></path><path d="M709.6 665.79L847.94 538.75" stroke="rgba(139, 142, 149, 1)" stroke-width="1.5"></path><path d="M709.6 665.79L500.45 667.43" stroke="rgba(139, 142, 149, 1)" stroke-width="1.5"></path><path d="M858.52 235.61L858.52 235.61" stroke="rgba(139, 142, 149, 1)" stroke-width="1.5"></path><path d="M858.52 235.61L955.39 212.44" stroke="rgba(139, 142, 149, 1)" stroke-width="1.5"></path><path d="M843.34 339.95L843.34 339.95" stroke="rgba(139, 142, 149, 1)" stroke-width="1.5"></path><path d="M843.34 339.95L858.52 235.61" stroke="rgba(139, 142, 149, 1)" stroke-width="1.5"></path><path d="M843.34 339.95L949.02 361.26" stroke="rgba(139, 142, 149, 1)" stroke-width="1.5"></path><path d="M847.94 538.75L847.94 538.75" stroke="rgba(139, 142, 149, 1)" stroke-width="1.5"></path><path d="M847.94 538.75L849.41 655.56" stroke="rgba(139, 142, 149, 1)" stroke-width="1.5"></path><path d="M847.94 538.75L957.32 497.24" stroke="rgba(139, 142, 149, 1)" stroke-width="1.5"></path><path d="M849.41 655.56L849.41 655.56" stroke="rgba(139, 142, 149, 1)" stroke-width="1.5"></path><path d="M849.41 655.56L1002.7 680.06" stroke="rgba(139, 142, 149, 1)" stroke-width="1.5"></path><path d="M849.41 655.56L957.32 497.24" stroke="rgba(139, 142, 149, 1)" stroke-width="1.5"></path><path d="M849.41 655.56L689.15 495.02" stroke="rgba(139, 142, 149, 1)" stroke-width="1.5"></path><path d="M943.28 -87.2L943.28 -87.2" stroke="rgba(139, 142, 149, 1)" stroke-width="1.5"></path><path d="M943.28 -87.2L971.84 72.15" stroke="rgba(139, 142, 149, 1)" stroke-width="1.5"></path><path d="M943.28 -87.2L1123.32 -85.45" stroke="rgba(139, 142, 149, 1)" stroke-width="1.5"></path><path d="M971.84 72.15L971.84 72.15" stroke="rgba(139, 142, 149, 1)" stroke-width="1.5"></path><path d="M971.84 72.15L955.39 212.44" stroke="rgba(139, 142, 149, 1)" stroke-width="1.5"></path><path d="M955.39 212.44L955.39 212.44" stroke="rgba(139, 142, 149, 1)" stroke-width="1.5"></path><path d="M955.39 212.44L949.02 361.26" stroke="rgba(139, 142, 149, 1)" stroke-width="1.5"></path><path d="M955.39 212.44L843.34 339.95" stroke="rgba(139, 142, 149, 1)" stroke-width="1.5"></path><path d="M949.02 361.26L949.02 361.26" stroke="rgba(139, 142, 149, 1)" stroke-width="1.5"></path><path d="M949.02 361.26L957.32 497.24" stroke="rgba(139, 142, 149, 1)" stroke-width="1.5"></path><path d="M949.02 361.26L858.52 235.61" stroke="rgba(139, 142, 149, 1)" stroke-width="1.5"></path><path d="M949.02 361.26L847.94 538.75" stroke="rgba(139, 142, 149, 1)" stroke-width="1.5"></path><path d="M949.02 361.26L1154.11 357.83" stroke="rgba(139, 142, 149, 1)" stroke-width="1.5"></path><path d="M957.32 497.24L957.32 497.24" stroke="rgba(139, 142, 149, 1)" stroke-width="1.5"></path><path d="M957.32 497.24L1102.95 551.42" stroke="rgba(139, 142, 149, 1)" stroke-width="1.5"></path><path d="M957.32 497.24L1002.7 680.06" stroke="rgba(139, 142, 149, 1)" stroke-width="1.5"></path><path d="M1002.7 680.06L1002.7 680.06" stroke="rgba(139, 142, 149, 1)" stroke-width="1.5"></path><path d="M1002.7 680.06L1129.51 657.52" stroke="rgba(139, 142, 149, 1)" stroke-width="1.5"></path><path d="M1002.7 680.06L1102.95 551.42" stroke="rgba(139, 142, 149, 1)" stroke-width="1.5"></path><path d="M1123.32 -85.45L1123.32 -85.45" stroke="rgba(139, 142, 149, 1)" stroke-width="1.5"></path><path d="M1123.32 -85.45L1134.5 45.9" stroke="rgba(139, 142, 149, 1)" stroke-width="1.5"></path><path d="M1123.32 -85.45L1306.23 -100.49" stroke="rgba(139, 142, 149, 1)" stroke-width="1.5"></path><path d="M1123.32 -85.45L971.84 72.15" stroke="rgba(139, 142, 149, 1)" stroke-width="1.5"></path><path d="M1134.5 45.9L1134.5 45.9" stroke="rgba(139, 142, 149, 1)" stroke-width="1.5"></path><path d="M1134.5 45.9L1251.69 98.28" stroke="rgba(139, 142, 149, 1)" stroke-width="1.5"></path><path d="M1130.27 193.9L1130.27 193.9" stroke="rgba(139, 142, 149, 1)" stroke-width="1.5"></path><path d="M1130.27 193.9L1134.5 45.9" stroke="rgba(139, 142, 149, 1)" stroke-width="1.5"></path><path d="M1130.27 193.9L1251.69 98.28" stroke="rgba(139, 142, 149, 1)" stroke-width="1.5"></path><path d="M1130.27 193.9L1295.51 187.72" stroke="rgba(139, 142, 149, 1)" stroke-width="1.5"></path><path d="M1130.27 193.9L1154.11 357.83" stroke="rgba(139, 142, 149, 1)" stroke-width="1.5"></path><path d="M1130.27 193.9L955.39 212.44" stroke="rgba(139, 142, 149, 1)" stroke-width="1.5"></path><path d="M1130.27 193.9L971.84 72.15" stroke="rgba(139, 142, 149, 1)" stroke-width="1.5"></path><path d="M1154.11 357.83L1154.11 357.83" stroke="rgba(139, 142, 149, 1)" stroke-width="1.5"></path><path d="M1154.11 357.83L1263.38 369.27" stroke="rgba(139, 142, 149, 1)" stroke-width="1.5"></path><path d="M1102.95 551.42L1102.95 551.42" stroke="rgba(139, 142, 149, 1)" stroke-width="1.5"></path><path d="M1102.95 551.42L1129.51 657.52" stroke="rgba(139, 142, 149, 1)" stroke-width="1.5"></path><path d="M1102.95 551.42L1243.12 518.53" stroke="rgba(139, 142, 149, 1)" stroke-width="1.5"></path><path d="M1129.51 657.52L1129.51 657.52" stroke="rgba(139, 142, 149, 1)" stroke-width="1.5"></path><path d="M1129.51 657.52L1243.12 518.53" stroke="rgba(139, 142, 149, 1)" stroke-width="1.5"></path><path d="M1306.23 -100.49L1306.23 -100.49" stroke="rgba(139, 142, 149, 1)" stroke-width="1.5"></path><path d="M1306.23 -100.49L1393.94 -65.21" stroke="rgba(139, 142, 149, 1)" stroke-width="1.5"></path><path d="M1306.23 -100.49L1251.69 98.28" stroke="rgba(139, 142, 149, 1)" stroke-width="1.5"></path><path d="M1306.23 -100.49L1435.65 65.78" stroke="rgba(139, 142, 149, 1)" stroke-width="1.5"></path><path d="M1306.23 -100.49L1134.5 45.9" stroke="rgba(139, 142, 149, 1)" stroke-width="1.5"></path><path d="M1251.69 98.28L1251.69 98.28" stroke="rgba(139, 142, 149, 1)" stroke-width="1.5"></path><path d="M1251.69 98.28L1295.51 187.72" stroke="rgba(139, 142, 149, 1)" stroke-width="1.5"></path><path d="M1251.69 98.28L1406.44 190.19" stroke="rgba(139, 142, 149, 1)" stroke-width="1.5"></path><path d="M1295.51 187.72L1295.51 187.72" stroke="rgba(139, 142, 149, 1)" stroke-width="1.5"></path><path d="M1295.51 187.72L1406.44 190.19" stroke="rgba(139, 142, 149, 1)" stroke-width="1.5"></path><path d="M1295.51 187.72L1263.38 369.27" stroke="rgba(139, 142, 149, 1)" stroke-width="1.5"></path><path d="M1263.38 369.27L1263.38 369.27" stroke="rgba(139, 142, 149, 1)" stroke-width="1.5"></path><path d="M1263.38 369.27L1243.12 518.53" stroke="rgba(139, 142, 149, 1)" stroke-width="1.5"></path><path d="M1243.12 518.53L1243.12 518.53" stroke="rgba(139, 142, 149, 1)" stroke-width="1.5"></path><path d="M1243.12 518.53L1154.11 357.83" stroke="rgba(139, 142, 149, 1)" stroke-width="1.5"></path><path d="M1243.12 518.53L1434.52 489.5" stroke="rgba(139, 142, 149, 1)" stroke-width="1.5"></path><path d="M1243.12 518.53L1448.29 351.65" stroke="rgba(139, 142, 149, 1)" stroke-width="1.5"></path><path d="M1393.94 -65.21L1393.94 -65.21" stroke="rgba(139, 142, 149, 1)" stroke-width="1.5"></path><path d="M1393.94 -65.21L1435.65 65.78" stroke="rgba(139, 142, 149, 1)" stroke-width="1.5"></path><path d="M1393.94 -65.21L1561.93 -80.04" stroke="rgba(139, 142, 149, 1)" stroke-width="1.5"></path><path d="M1393.94 -65.21L1251.69 98.28" stroke="rgba(139, 142, 149, 1)" stroke-width="1.5"></path><path d="M1393.94 -65.21L1568.92 82.07" stroke="rgba(139, 142, 149, 1)" stroke-width="1.5"></path><path d="M1393.94 -65.21L1406.44 190.19" stroke="rgba(139, 142, 149, 1)" stroke-width="1.5"></path><path d="M1435.65 65.78L1435.65 65.78" stroke="rgba(139, 142, 149, 1)" stroke-width="1.5"></path><path d="M1435.65 65.78L1406.44 190.19" stroke="rgba(139, 142, 149, 1)" stroke-width="1.5"></path><path d="M1435.65 65.78L1568.92 82.07" stroke="rgba(139, 142, 149, 1)" stroke-width="1.5"></path><path d="M1435.65 65.78L1295.51 187.72" stroke="rgba(139, 142, 149, 1)" stroke-width="1.5"></path><path d="M1406.44 190.19L1406.44 190.19" stroke="rgba(139, 142, 149, 1)" stroke-width="1.5"></path><path d="M1406.44 190.19L1448.29 351.65" stroke="rgba(139, 142, 149, 1)" stroke-width="1.5"></path><path d="M1406.44 190.19L1578.42 195.52" stroke="rgba(139, 142, 149, 1)" stroke-width="1.5"></path><path d="M1406.44 190.19L1568.92 82.07" stroke="rgba(139, 142, 149, 1)" stroke-width="1.5"></path><path d="M1448.29 351.65L1448.29 351.65" stroke="rgba(139, 142, 149, 1)" stroke-width="1.5"></path><path d="M1448.29 351.65L1434.52 489.5" stroke="rgba(139, 142, 149, 1)" stroke-width="1.5"></path><path d="M1434.52 489.5L1434.52 489.5" stroke="rgba(139, 142, 149, 1)" stroke-width="1.5"></path><path d="M1434.52 489.5L1543.52 534" stroke="rgba(139, 142, 149, 1)" stroke-width="1.5"></path><path d="M1561.93 -80.04L1561.93 -80.04" stroke="rgba(139, 142, 149, 1)" stroke-width="1.5"></path><path d="M1561.93 -80.04L1568.92 82.07" stroke="rgba(139, 142, 149, 1)" stroke-width="1.5"></path><path d="M1561.93 -80.04L1435.65 65.78" stroke="rgba(139, 142, 149, 1)" stroke-width="1.5"></path><path d="M1561.93 -80.04L1306.23 -100.49" stroke="rgba(139, 142, 149, 1)" stroke-width="1.5"></path><path d="M1568.92 82.07L1568.92 82.07" stroke="rgba(139, 142, 149, 1)" stroke-width="1.5"></path><path d="M1568.92 82.07L1578.42 195.52" stroke="rgba(139, 142, 149, 1)" stroke-width="1.5"></path><path d="M1578.42 195.52L1578.42 195.52" stroke="rgba(139, 142, 149, 1)" stroke-width="1.5"></path><path d="M1578.42 195.52L1586.57 340.14" stroke="rgba(139, 142, 149, 1)" stroke-width="1.5"></path><path d="M1578.42 195.52L1435.65 65.78" stroke="rgba(139, 142, 149, 1)" stroke-width="1.5"></path><path d="M1578.42 195.52L1448.29 351.65" stroke="rgba(139, 142, 149, 1)" stroke-width="1.5"></path><path d="M1578.42 195.52L1561.93 -80.04" stroke="rgba(139, 142, 149, 1)" stroke-width="1.5"></path><path d="M1586.57 340.14L1586.57 340.14" stroke="rgba(139, 142, 149, 1)" stroke-width="1.5"></path><path d="M1586.57 340.14L1448.29 351.65" stroke="rgba(139, 142, 149, 1)" stroke-width="1.5"></path><path d="M1586.57 340.14L1543.52 534" stroke="rgba(139, 142, 149, 1)" stroke-width="1.5"></path><path d="M1543.52 534L1543.52 534" stroke="rgba(139, 142, 149, 1)" stroke-width="1.5"></path><path d="M1543.52 534L1552.85 692.1" stroke="rgba(139, 142, 149, 1)" stroke-width="1.5"></path><path d="M1552.85 692.1L1552.85 692.1" stroke="rgba(139, 142, 149, 1)" stroke-width="1.5"></path><path d="M1552.85 692.1L1434.52 489.5" stroke="rgba(139, 142, 149, 1)" stroke-width="1.5"></path><circle r="5" cx="-104.96" cy="365.4" fill="rgba(139, 142, 149, 1)"></circle><circle r="5" cx="-51.87" cy="554.78" fill="rgba(139, 142, 149, 1)"></circle><circle r="5" cx="-88.51" cy="704.75" fill="rgba(139, 142, 149, 1)"></circle><circle r="5" cx="39.22" cy="366.57" fill="rgba(139, 142, 149, 1)"></circle><circle r="5" cx="109.55" cy="503.96" fill="rgba(139, 142, 149, 1)"></circle><circle r="5" cx="198.34" cy="412.37" fill="rgba(139, 142, 149, 1)"></circle><circle r="5" cx="212.11" cy="498.74" fill="rgba(139, 142, 149, 1)"></circle><circle r="5" cx="224.54" cy="680.73" fill="rgba(139, 142, 149, 1)"></circle><circle r="5" cx="372.77" cy="401.82" fill="rgba(139, 142, 149, 1)"></circle><circle r="5" cx="371.99" cy="517.07" fill="rgba(139, 142, 149, 1)"></circle><circle r="5" cx="344.08" cy="670.59" fill="rgba(139, 142, 149, 1)"></circle><circle r="5" cx="518.75" cy="360.81" fill="rgba(139, 142, 149, 1)"></circle><circle r="5" cx="524.5" cy="542.72" fill="rgba(139, 142, 149, 1)"></circle><circle r="5" cx="500.45" cy="667.43" fill="rgba(139, 142, 149, 1)"></circle><circle r="5" cx="704.59" cy="390.65" fill="rgba(139, 142, 149, 1)"></circle><circle r="5" cx="689.15" cy="495.02" fill="rgba(139, 142, 149, 1)"></circle><circle r="5" cx="709.6" cy="665.79" fill="rgba(139, 142, 149, 1)"></circle><circle r="5" cx="858.52" cy="235.61" fill="rgba(139, 142, 149, 1)"></circle><circle r="5" cx="843.34" cy="339.95" fill="rgba(139, 142, 149, 1)"></circle><circle r="5" cx="847.94" cy="538.75" fill="rgba(139, 142, 149, 1)"></circle><circle r="5" cx="849.41" cy="655.56" fill="rgba(139, 142, 149, 1)"></circle><circle r="5" cx="943.28" cy="-87.2" fill="rgba(139, 142, 149, 1)"></circle><circle r="5" cx="971.84" cy="72.15" fill="rgba(139, 142, 149, 1)"></circle><circle r="5" cx="955.39" cy="212.44" fill="rgba(139, 142, 149, 1)"></circle><circle r="5" cx="949.02" cy="361.26" fill="rgba(139, 142, 149, 1)"></circle><circle r="5" cx="957.32" cy="497.24" fill="rgba(139, 142, 149, 1)"></circle><circle r="5" cx="1002.7" cy="680.06" fill="rgba(139, 142, 149, 1)"></circle><circle r="5" cx="1123.32" cy="-85.45" fill="rgba(139, 142, 149, 1)"></circle><circle r="5" cx="1134.5" cy="45.9" fill="rgba(139, 142, 149, 1)"></circle><circle r="5" cx="1130.27" cy="193.9" fill="rgba(139, 142, 149, 1)"></circle><circle r="5" cx="1154.11" cy="357.83" fill="rgba(139, 142, 149, 1)"></circle><circle r="5" cx="1102.95" cy="551.42" fill="rgba(139, 142, 149, 1)"></circle><circle r="5" cx="1129.51" cy="657.52" fill="rgba(139, 142, 149, 1)"></circle><circle r="5" cx="1306.23" cy="-100.49" fill="rgba(139, 142, 149, 1)"></circle><circle r="5" cx="1251.69" cy="98.28" fill="rgba(139, 142, 149, 1)"></circle><circle r="5" cx="1295.51" cy="187.72" fill="rgba(139, 142, 149, 1)"></circle><circle r="5" cx="1263.38" cy="369.27" fill="rgba(139, 142, 149, 1)"></circle><circle r="5" cx="1243.12" cy="518.53" fill="rgba(139, 142, 149, 1)"></circle><circle r="5" cx="1393.94" cy="-65.21" fill="rgba(139, 142, 149, 1)"></circle><circle r="5" cx="1435.65" cy="65.78" fill="rgba(139, 142, 149, 1)"></circle><circle r="5" cx="1406.44" cy="190.19" fill="rgba(139, 142, 149, 1)"></circle><circle r="5" cx="1448.29" cy="351.65" fill="rgba(139, 142, 149, 1)"></circle><circle r="5" cx="1434.52" cy="489.5" fill="rgba(139, 142, 149, 1)"></circle><circle r="5" cx="1561.93" cy="-80.04" fill="rgba(139, 142, 149, 1)"></circle><circle r="5" cx="1568.92" cy="82.07" fill="rgba(139, 142, 149, 1)"></circle><circle r="5" cx="1578.42" cy="195.52" fill="rgba(139, 142, 149, 1)"></circle><circle r="5" cx="1586.57" cy="340.14" fill="rgba(139, 142, 149, 1)"></circle><circle r="5" cx="1543.52" cy="534" fill="rgba(139, 142, 149, 1)"></circle><circle r="5" cx="1552.85" cy="692.1" fill="rgba(139, 142, 149, 1)"></circle><path d="M58.66 704.33L58.66 704.33" stroke="hsl(229.10000000000002, 57.9%, 100%)" stroke-width="1.5"></path><path d="M58.66 704.33L196.85 640.24" stroke="hsl(229.10000000000002, 57.9%, 100%)" stroke-width="1.5"></path><path d="M58.66 704.33L-111.93 706.05" stroke="hsl(229.10000000000002, 57.9%, 100%)" stroke-width="1.5"></path><path d="M58.66 704.33L89.49 506.81" stroke="hsl(229.10000000000002, 57.9%, 100%)" stroke-width="1.5"></path><path d="M58.66 704.33L-109.88 557.35" stroke="hsl(229.10000000000002, 57.9%, 100%)" stroke-width="1.5"></path><path d="M58.66 704.33L259.84 559.57" stroke="hsl(229.10000000000002, 57.9%, 100%)" stroke-width="1.5"></path><path d="M196.85 640.24L196.85 640.24" stroke="hsl(229.10000000000002, 57.9%, 100%)" stroke-width="1.5"></path><path d="M196.85 640.24L259.84 559.57" stroke="hsl(229.10000000000002, 57.9%, 100%)" stroke-width="1.5"></path><path d="M196.85 640.24L89.49 506.81" stroke="hsl(229.10000000000002, 57.9%, 100%)" stroke-width="1.5"></path><path d="M196.85 640.24L347.22 516.27" stroke="hsl(229.10000000000002, 57.9%, 100%)" stroke-width="1.5"></path><path d="M196.85 640.24L385.51 696.35" stroke="hsl(229.10000000000002, 57.9%, 100%)" stroke-width="1.5"></path><path d="M347.22 516.27L347.22 516.27" stroke="hsl(229.10000000000002, 57.9%, 100%)" stroke-width="1.5"></path><path d="M347.22 516.27L259.84 559.57" stroke="hsl(229.10000000000002, 57.9%, 100%)" stroke-width="1.5"></path><path d="M347.22 516.27L489.66 537.35" stroke="hsl(229.10000000000002, 57.9%, 100%)" stroke-width="1.5"></path><path d="M982.03 391.23L982.03 391.23" stroke="hsl(229.10000000000002, 57.9%, 100%)" stroke-width="1.5"></path><path d="M982.03 391.23L987.02 551.6" stroke="hsl(229.10000000000002, 57.9%, 100%)" stroke-width="1.5"></path><path d="M982.03 391.23L801.28 375.98" stroke="hsl(229.10000000000002, 57.9%, 100%)" stroke-width="1.5"></path><path d="M982.03 391.23L1126.59 522.3" stroke="hsl(229.10000000000002, 57.9%, 100%)" stroke-width="1.5"></path><path d="M982.03 391.23L837.65 558.61" stroke="hsl(229.10000000000002, 57.9%, 100%)" stroke-width="1.5"></path><path d="M982.03 391.23L1114.12 188.87" stroke="hsl(229.10000000000002, 57.9%, 100%)" stroke-width="1.5"></path><path d="M987.02 551.6L987.02 551.6" stroke="hsl(229.10000000000002, 57.9%, 100%)" stroke-width="1.5"></path><path d="M987.02 551.6L973.9 639.51" stroke="hsl(229.10000000000002, 57.9%, 100%)" stroke-width="1.5"></path><path d="M987.02 551.6L1126.59 522.3" stroke="hsl(229.10000000000002, 57.9%, 100%)" stroke-width="1.5"></path><path d="M1137.63 702.41L1137.63 702.41" stroke="hsl(229.10000000000002, 57.9%, 100%)" stroke-width="1.5"></path><path d="M1137.63 702.41L973.9 639.51" stroke="hsl(229.10000000000002, 57.9%, 100%)" stroke-width="1.5"></path><path d="M1137.63 702.41L1126.59 522.3" stroke="hsl(229.10000000000002, 57.9%, 100%)" stroke-width="1.5"></path><path d="M1439.07 -90.71L1439.07 -90.71" stroke="hsl(229.10000000000002, 57.9%, 100%)" stroke-width="1.5"></path><path d="M1439.07 -90.71L1611.05 -70.78" stroke="hsl(229.10000000000002, 57.9%, 100%)" stroke-width="1.5"></path><path d="M1439.07 -90.71L1266.65 -65.33" stroke="hsl(229.10000000000002, 57.9%, 100%)" stroke-width="1.5"></path><path d="M1439.07 -90.71L1436.35 87.31" stroke="hsl(229.10000000000002, 57.9%, 100%)" stroke-width="1.5"></path><path d="M1439.07 -90.71L1593.9 42.7" stroke="hsl(229.10000000000002, 57.9%, 100%)" stroke-width="1.5"></path><path d="M1439.07 -90.71L1256.09 49.45" stroke="hsl(229.10000000000002, 57.9%, 100%)" stroke-width="1.5"></path><path d="M1439.07 -90.71L1547.52 201.84" stroke="hsl(229.10000000000002, 57.9%, 100%)" stroke-width="1.5"></path><path d="M1454.47 512.47L1454.47 512.47" stroke="hsl(229.10000000000002, 57.9%, 100%)" stroke-width="1.5"></path><path d="M1454.47 512.47L1438.09 391.33" stroke="hsl(229.10000000000002, 57.9%, 100%)" stroke-width="1.5"></path><path d="M1454.47 512.47L1593.01 523.29" stroke="hsl(229.10000000000002, 57.9%, 100%)" stroke-width="1.5"></path><path d="M1454.47 512.47L1397.16 670.83" stroke="hsl(229.10000000000002, 57.9%, 100%)" stroke-width="1.5"></path><path d="M1454.47 512.47L1538.34 669.49" stroke="hsl(229.10000000000002, 57.9%, 100%)" stroke-width="1.5"></path><path d="M1607.13 338.15L1607.13 338.15" stroke="hsl(229.10000000000002, 57.9%, 100%)" stroke-width="1.5"></path><path d="M1607.13 338.15L1547.52 201.84" stroke="hsl(229.10000000000002, 57.9%, 100%)" stroke-width="1.5"></path><path d="M1607.13 338.15L1438.09 391.33" stroke="hsl(229.10000000000002, 57.9%, 100%)" stroke-width="1.5"></path><path d="M1607.13 338.15L1593.01 523.29" stroke="hsl(229.10000000000002, 57.9%, 100%)" stroke-width="1.5"></path><path d="M1593.01 523.29L1593.01 523.29" stroke="hsl(229.10000000000002, 57.9%, 100%)" stroke-width="1.5"></path><path d="M1593.01 523.29L1538.34 669.49" stroke="hsl(229.10000000000002, 57.9%, 100%)" stroke-width="1.5"></path><path d="M1593.01 523.29L1438.09 391.33" stroke="hsl(229.10000000000002, 57.9%, 100%)" stroke-width="1.5"></path><path d="M-109.88 557.35L-109.88 557.35" stroke="hsl(229.10000000000002, 57.9%, 100%)" stroke-width="1.5"></path><path d="M-109.88 557.35L-111.93 706.05" stroke="hsl(229.10000000000002, 57.9%, 100%)" stroke-width="1.5"></path><path d="M-109.88 557.35L89.49 506.81" stroke="hsl(229.10000000000002, 57.9%, 100%)" stroke-width="1.5"></path><path d="M-109.88 557.35L196.85 640.24" stroke="hsl(229.10000000000002, 57.9%, 100%)" stroke-width="1.5"></path><path d="M-109.88 557.35L259.84 559.57" stroke="hsl(229.10000000000002, 57.9%, 100%)" stroke-width="1.5"></path><path d="M-109.88 557.35L347.22 516.27" stroke="hsl(229.10000000000002, 57.9%, 100%)" stroke-width="1.5"></path><path d="M-111.93 706.05L-111.93 706.05" stroke="hsl(229.10000000000002, 57.9%, 100%)" stroke-width="1.5"></path><path d="M89.49 506.81L89.49 506.81" stroke="hsl(229.10000000000002, 57.9%, 100%)" stroke-width="1.5"></path><path d="M89.49 506.81L259.84 559.57" stroke="hsl(229.10000000000002, 57.9%, 100%)" stroke-width="1.5"></path><path d="M89.49 506.81L347.22 516.27" stroke="hsl(229.10000000000002, 57.9%, 100%)" stroke-width="1.5"></path><path d="M89.49 506.81L-111.93 706.05" stroke="hsl(229.10000000000002, 57.9%, 100%)" stroke-width="1.5"></path><path d="M259.84 559.57L259.84 559.57" stroke="hsl(229.10000000000002, 57.9%, 100%)" stroke-width="1.5"></path><path d="M259.84 559.57L385.51 696.35" stroke="hsl(229.10000000000002, 57.9%, 100%)" stroke-width="1.5"></path><path d="M385.51 696.35L385.51 696.35" stroke="hsl(229.10000000000002, 57.9%, 100%)" stroke-width="1.5"></path><path d="M385.51 696.35L541.42 687.49" stroke="hsl(229.10000000000002, 57.9%, 100%)" stroke-width="1.5"></path><path d="M385.51 696.35L347.22 516.27" stroke="hsl(229.10000000000002, 57.9%, 100%)" stroke-width="1.5"></path><path d="M385.51 696.35L489.66 537.35" stroke="hsl(229.10000000000002, 57.9%, 100%)" stroke-width="1.5"></path><path d="M489.66 537.35L489.66 537.35" stroke="hsl(229.10000000000002, 57.9%, 100%)" stroke-width="1.5"></path><path d="M489.66 537.35L541.42 687.49" stroke="hsl(229.10000000000002, 57.9%, 100%)" stroke-width="1.5"></path><path d="M489.66 537.35L682.28 524.32" stroke="hsl(229.10000000000002, 57.9%, 100%)" stroke-width="1.5"></path><path d="M489.66 537.35L654.29 659.31" stroke="hsl(229.10000000000002, 57.9%, 100%)" stroke-width="1.5"></path><path d="M541.42 687.49L541.42 687.49" stroke="hsl(229.10000000000002, 57.9%, 100%)" stroke-width="1.5"></path><path d="M541.42 687.49L654.29 659.31" stroke="hsl(229.10000000000002, 57.9%, 100%)" stroke-width="1.5"></path><path d="M541.42 687.49L682.28 524.32" stroke="hsl(229.10000000000002, 57.9%, 100%)" stroke-width="1.5"></path><path d="M541.42 687.49L347.22 516.27" stroke="hsl(229.10000000000002, 57.9%, 100%)" stroke-width="1.5"></path><path d="M699.26 390.5L699.26 390.5" stroke="hsl(229.10000000000002, 57.9%, 100%)" stroke-width="1.5"></path><path d="M699.26 390.5L801.28 375.98" stroke="hsl(229.10000000000002, 57.9%, 100%)" stroke-width="1.5"></path><path d="M699.26 390.5L682.28 524.32" stroke="hsl(229.10000000000002, 57.9%, 100%)" stroke-width="1.5"></path><path d="M699.26 390.5L837.65 558.61" stroke="hsl(229.10000000000002, 57.9%, 100%)" stroke-width="1.5"></path><path d="M699.26 390.5L489.66 537.35" stroke="hsl(229.10000000000002, 57.9%, 100%)" stroke-width="1.5"></path><path d="M699.26 390.5L654.29 659.31" stroke="hsl(229.10000000000002, 57.9%, 100%)" stroke-width="1.5"></path><path d="M682.28 524.32L682.28 524.32" stroke="hsl(229.10000000000002, 57.9%, 100%)" stroke-width="1.5"></path><path d="M682.28 524.32L654.29 659.31" stroke="hsl(229.10000000000002, 57.9%, 100%)" stroke-width="1.5"></path><path d="M682.28 524.32L837.65 558.61" stroke="hsl(229.10000000000002, 57.9%, 100%)" stroke-width="1.5"></path><path d="M682.28 524.32L801.28 375.98" stroke="hsl(229.10000000000002, 57.9%, 100%)" stroke-width="1.5"></path><path d="M654.29 659.31L654.29 659.31" stroke="hsl(229.10000000000002, 57.9%, 100%)" stroke-width="1.5"></path><path d="M654.29 659.31L837.5 687.27" stroke="hsl(229.10000000000002, 57.9%, 100%)" stroke-width="1.5"></path><path d="M801.28 375.98L801.28 375.98" stroke="hsl(229.10000000000002, 57.9%, 100%)" stroke-width="1.5"></path><path d="M837.65 558.61L837.65 558.61" stroke="hsl(229.10000000000002, 57.9%, 100%)" stroke-width="1.5"></path><path d="M837.65 558.61L837.5 687.27" stroke="hsl(229.10000000000002, 57.9%, 100%)" stroke-width="1.5"></path><path d="M837.65 558.61L987.02 551.6" stroke="hsl(229.10000000000002, 57.9%, 100%)" stroke-width="1.5"></path><path d="M837.65 558.61L973.9 639.51" stroke="hsl(229.10000000000002, 57.9%, 100%)" stroke-width="1.5"></path><path d="M837.65 558.61L801.28 375.98" stroke="hsl(229.10000000000002, 57.9%, 100%)" stroke-width="1.5"></path><path d="M837.65 558.61L654.29 659.31" stroke="hsl(229.10000000000002, 57.9%, 100%)" stroke-width="1.5"></path><path d="M837.5 687.27L837.5 687.27" stroke="hsl(229.10000000000002, 57.9%, 100%)" stroke-width="1.5"></path><path d="M837.5 687.27L973.9 639.51" stroke="hsl(229.10000000000002, 57.9%, 100%)" stroke-width="1.5"></path><path d="M837.5 687.27L987.02 551.6" stroke="hsl(229.10000000000002, 57.9%, 100%)" stroke-width="1.5"></path><path d="M837.5 687.27L682.28 524.32" stroke="hsl(229.10000000000002, 57.9%, 100%)" stroke-width="1.5"></path><path d="M973.9 639.51L973.9 639.51" stroke="hsl(229.10000000000002, 57.9%, 100%)" stroke-width="1.5"></path><path d="M1161.78 91.6L1161.78 91.6" stroke="hsl(229.10000000000002, 57.9%, 100%)" stroke-width="1.5"></path><path d="M1161.78 91.6L1256.09 49.45" stroke="hsl(229.10000000000002, 57.9%, 100%)" stroke-width="1.5"></path><path d="M1161.78 91.6L1114.12 188.87" stroke="hsl(229.10000000000002, 57.9%, 100%)" stroke-width="1.5"></path><path d="M1161.78 91.6L1266.65 -65.33" stroke="hsl(229.10000000000002, 57.9%, 100%)" stroke-width="1.5"></path><path d="M1161.78 91.6L1296.68 242.53" stroke="hsl(229.10000000000002, 57.9%, 100%)" stroke-width="1.5"></path><path d="M1114.12 188.87L1114.12 188.87" stroke="hsl(229.10000000000002, 57.9%, 100%)" stroke-width="1.5"></path><path d="M1114.12 188.87L1296.68 242.53" stroke="hsl(229.10000000000002, 57.9%, 100%)" stroke-width="1.5"></path><path d="M1114.12 188.87L1256.09 49.45" stroke="hsl(229.10000000000002, 57.9%, 100%)" stroke-width="1.5"></path><path d="M1114.12 188.87L1282.13 369.81" stroke="hsl(229.10000000000002, 57.9%, 100%)" stroke-width="1.5"></path><path d="M1126.59 522.3L1126.59 522.3" stroke="hsl(229.10000000000002, 57.9%, 100%)" stroke-width="1.5"></path><path d="M1126.59 522.3L1264.3 530.4" stroke="hsl(229.10000000000002, 57.9%, 100%)" stroke-width="1.5"></path><path d="M1266.65 -65.33L1266.65 -65.33" stroke="hsl(229.10000000000002, 57.9%, 100%)" stroke-width="1.5"></path><path d="M1266.65 -65.33L1256.09 49.45" stroke="hsl(229.10000000000002, 57.9%, 100%)" stroke-width="1.5"></path><path d="M1266.65 -65.33L1436.35 87.31" stroke="hsl(229.10000000000002, 57.9%, 100%)" stroke-width="1.5"></path><path d="M1266.65 -65.33L1114.12 188.87" stroke="hsl(229.10000000000002, 57.9%, 100%)" stroke-width="1.5"></path><path d="M1266.65 -65.33L1296.68 242.53" stroke="hsl(229.10000000000002, 57.9%, 100%)" stroke-width="1.5"></path><path d="M1256.09 49.45L1256.09 49.45" stroke="hsl(229.10000000000002, 57.9%, 100%)" stroke-width="1.5"></path><path d="M1296.68 242.53L1296.68 242.53" stroke="hsl(229.10000000000002, 57.9%, 100%)" stroke-width="1.5"></path><path d="M1296.68 242.53L1282.13 369.81" stroke="hsl(229.10000000000002, 57.9%, 100%)" stroke-width="1.5"></path><path d="M1296.68 242.53L1432.4 242.77" stroke="hsl(229.10000000000002, 57.9%, 100%)" stroke-width="1.5"></path><path d="M1296.68 242.53L1256.09 49.45" stroke="hsl(229.10000000000002, 57.9%, 100%)" stroke-width="1.5"></path><path d="M1282.13 369.81L1282.13 369.81" stroke="hsl(229.10000000000002, 57.9%, 100%)" stroke-width="1.5"></path><path d="M1282.13 369.81L1438.09 391.33" stroke="hsl(229.10000000000002, 57.9%, 100%)" stroke-width="1.5"></path><path d="M1282.13 369.81L1264.3 530.4" stroke="hsl(229.10000000000002, 57.9%, 100%)" stroke-width="1.5"></path><path d="M1282.13 369.81L1432.4 242.77" stroke="hsl(229.10000000000002, 57.9%, 100%)" stroke-width="1.5"></path><path d="M1264.3 530.4L1264.3 530.4" stroke="hsl(229.10000000000002, 57.9%, 100%)" stroke-width="1.5"></path><path d="M1264.3 530.4L1454.47 512.47" stroke="hsl(229.10000000000002, 57.9%, 100%)" stroke-width="1.5"></path><path d="M1436.35 87.31L1436.35 87.31" stroke="hsl(229.10000000000002, 57.9%, 100%)" stroke-width="1.5"></path><path d="M1436.35 87.31L1432.4 242.77" stroke="hsl(229.10000000000002, 57.9%, 100%)" stroke-width="1.5"></path><path d="M1436.35 87.31L1547.52 201.84" stroke="hsl(229.10000000000002, 57.9%, 100%)" stroke-width="1.5"></path><path d="M1436.35 87.31L1593.9 42.7" stroke="hsl(229.10000000000002, 57.9%, 100%)" stroke-width="1.5"></path><path d="M1436.35 87.31L1256.09 49.45" stroke="hsl(229.10000000000002, 57.9%, 100%)" stroke-width="1.5"></path><path d="M1432.4 242.77L1432.4 242.77" stroke="hsl(229.10000000000002, 57.9%, 100%)" stroke-width="1.5"></path><path d="M1432.4 242.77L1547.52 201.84" stroke="hsl(229.10000000000002, 57.9%, 100%)" stroke-width="1.5"></path><path d="M1438.09 391.33L1438.09 391.33" stroke="hsl(229.10000000000002, 57.9%, 100%)" stroke-width="1.5"></path><path d="M1438.09 391.33L1432.4 242.77" stroke="hsl(229.10000000000002, 57.9%, 100%)" stroke-width="1.5"></path><path d="M1397.16 670.83L1397.16 670.83" stroke="hsl(229.10000000000002, 57.9%, 100%)" stroke-width="1.5"></path><path d="M1397.16 670.83L1538.34 669.49" stroke="hsl(229.10000000000002, 57.9%, 100%)" stroke-width="1.5"></path><path d="M1397.16 670.83L1264.3 530.4" stroke="hsl(229.10000000000002, 57.9%, 100%)" stroke-width="1.5"></path><path d="M1397.16 670.83L1593.01 523.29" stroke="hsl(229.10000000000002, 57.9%, 100%)" stroke-width="1.5"></path><path d="M1397.16 670.83L1137.63 702.41" stroke="hsl(229.10000000000002, 57.9%, 100%)" stroke-width="1.5"></path><path d="M1397.16 670.83L1438.09 391.33" stroke="hsl(229.10000000000002, 57.9%, 100%)" stroke-width="1.5"></path><path d="M1611.05 -70.78L1611.05 -70.78" stroke="hsl(229.10000000000002, 57.9%, 100%)" stroke-width="1.5"></path><path d="M1611.05 -70.78L1593.9 42.7" stroke="hsl(229.10000000000002, 57.9%, 100%)" stroke-width="1.5"></path><path d="M1611.05 -70.78L1436.35 87.31" stroke="hsl(229.10000000000002, 57.9%, 100%)" stroke-width="1.5"></path><path d="M1611.05 -70.78L1547.52 201.84" stroke="hsl(229.10000000000002, 57.9%, 100%)" stroke-width="1.5"></path><path d="M1611.05 -70.78L1266.65 -65.33" stroke="hsl(229.10000000000002, 57.9%, 100%)" stroke-width="1.5"></path><path d="M1593.9 42.7L1593.9 42.7" stroke="hsl(229.10000000000002, 57.9%, 100%)" stroke-width="1.5"></path><path d="M1593.9 42.7L1547.52 201.84" stroke="hsl(229.10000000000002, 57.9%, 100%)" stroke-width="1.5"></path><path d="M1547.52 201.84L1547.52 201.84" stroke="hsl(229.10000000000002, 57.9%, 100%)" stroke-width="1.5"></path><path d="M1538.34 669.49L1538.34 669.49" stroke="hsl(229.10000000000002, 57.9%, 100%)" stroke-width="1.5"></path><circle r="25" cx="58.66" cy="704.33" fill="url(&quot;#SvgjsRadialGradient1007&quot;)"></circle><circle r="25" cx="196.85" cy="640.24" fill="url(&quot;#SvgjsRadialGradient1007&quot;)"></circle><circle r="25" cx="347.22" cy="516.27" fill="url(&quot;#SvgjsRadialGradient1007&quot;)"></circle><circle r="25" cx="982.03" cy="391.23" fill="url(&quot;#SvgjsRadialGradient1007&quot;)"></circle><circle r="25" cx="987.02" cy="551.6" fill="url(&quot;#SvgjsRadialGradient1007&quot;)"></circle><circle r="25" cx="1137.63" cy="702.41" fill="url(&quot;#SvgjsRadialGradient1007&quot;)"></circle><circle r="25" cx="1439.07" cy="-90.71" fill="url(&quot;#SvgjsRadialGradient1007&quot;)"></circle><circle r="25" cx="1454.47" cy="512.47" fill="url(&quot;#SvgjsRadialGradient1007&quot;)"></circle><circle r="25" cx="1607.13" cy="338.15" fill="url(&quot;#SvgjsRadialGradient1007&quot;)"></circle><circle r="25" cx="1593.01" cy="523.29" fill="url(&quot;#SvgjsRadialGradient1007&quot;)"></circle><circle r="5" cx="-109.88" cy="557.35" fill="#e1e5f7"></circle><circle r="5" cx="-111.93" cy="706.05" fill="#e1e5f7"></circle><circle r="5" cx="89.49" cy="506.81" fill="#e1e5f7"></circle><circle r="5" cx="259.84" cy="559.57" fill="#e1e5f7"></circle><circle r="5" cx="385.51" cy="696.35" fill="#e1e5f7"></circle><circle r="5" cx="489.66" cy="537.35" fill="#e1e5f7"></circle><circle r="5" cx="541.42" cy="687.49" fill="#e1e5f7"></circle><circle r="5" cx="699.26" cy="390.5" fill="#e1e5f7"></circle><circle r="5" cx="682.28" cy="524.32" fill="#e1e5f7"></circle><circle r="5" cx="654.29" cy="659.31" fill="#e1e5f7"></circle><circle r="5" cx="801.28" cy="375.98" fill="#e1e5f7"></circle><circle r="5" cx="837.65" cy="558.61" fill="#e1e5f7"></circle><circle r="5" cx="837.5" cy="687.27" fill="#e1e5f7"></circle><circle r="5" cx="973.9" cy="639.51" fill="#e1e5f7"></circle><circle r="5" cx="1161.78" cy="91.6" fill="#e1e5f7"></circle><circle r="5" cx="1114.12" cy="188.87" fill="#e1e5f7"></circle><circle r="5" cx="1126.59" cy="522.3" fill="#e1e5f7"></circle><circle r="5" cx="1266.65" cy="-65.33" fill="#e1e5f7"></circle><circle r="5" cx="1256.09" cy="49.45" fill="#e1e5f7"></circle><circle r="5" cx="1296.68" cy="242.53" fill="#e1e5f7"></circle><circle r="5" cx="1282.13" cy="369.81" fill="#e1e5f7"></circle><circle r="5" cx="1264.3" cy="530.4" fill="#e1e5f7"></circle><circle r="5" cx="1436.35" cy="87.31" fill="#e1e5f7"></circle><circle r="5" cx="1432.4" cy="242.77" fill="#e1e5f7"></circle><circle r="5" cx="1438.09" cy="391.33" fill="#e1e5f7"></circle><circle r="5" cx="1397.16" cy="670.83" fill="#e1e5f7"></circle><circle r="5" cx="1611.05" cy="-70.78" fill="#e1e5f7"></circle><circle r="5" cx="1593.9" cy="42.7" fill="#e1e5f7"></circle><circle r="5" cx="1547.52" cy="201.84" fill="#e1e5f7"></circle><circle r="5" cx="1538.34" cy="669.49" fill="#e1e5f7"></circle></g><defs><mask id="SvgjsMask1006"><rect width="1440" height="560" fill="#ffffff"></rect></mask><radialGradient id="SvgjsRadialGradient1007"><stop stop-color="#ffffff" offset="0.1"></stop><stop stop-color="rgba(195, 203, 239, 1)" offset="0.2"></stop><stop stop-color="rgba(195, 203, 239, 0)" offset="1"></stop></radialGradient></defs></svg>